<?xml version="1.0" standalone="no"?>
<!DOCTYPE svg PUBLIC "-//W3C//DTD SVG 20010904//EN"
 "http://www.w3.org/TR/2001/REC-SVG-20010904/DTD/svg10.dtd">
<svg version="1.0" xmlns="http://www.w3.org/2000/svg"
 width="1455.000000pt" height="1295.000000pt" viewBox="0 0 1455.000000 1295.000000"
 preserveAspectRatio="xMidYMid meet">

<g transform="translate(0.000000,1295.000000) scale(0.100000,-0.100000)"
fill="#000000" stroke="none">
<path d="M9510 12940 c-832 -7 -781 -2 -950 -81 -108 -51 -214 -132 -283 -217
-59 -73 -1318 -2067 -1343 -2128 -36 -86 10 -195 99 -238 l53 -26 879 15 c588
9 903 11 950 5 234 -33 444 -156 584 -343 22 -29 158 -250 303 -492 282 -468
914 -1517 1426 -2366 172 -284 312 -521 312 -525 0 -5 -27 -54 -60 -108 l-59
-100 33 -22 c17 -12 519 -358 1115 -768 596 -410 1086 -748 1091 -751 4 -2
108 165 231 373 123 207 290 490 372 627 159 265 192 332 231 466 86 297 51
599 -103 894 -105 201 -1223 2036 -1251 2055 -4 3 -191 307 -415 675 -225 369
-579 951 -788 1295 -209 344 -454 745 -543 893 -89 147 -183 295 -207 330
-172 241 -400 423 -620 495 -93 31 -222 54 -280 50 -18 -1 -367 -5 -777 -8z"/>
<path d="M530 7579 c-412 -692 -421 -709 -459 -825 -103 -311 -78 -631 74
-934 82 -164 1236 -2060 1266 -2080 5 -3 152 -242 327 -530 176 -289 541 -889
812 -1335 271 -445 556 -913 632 -1040 171 -282 247 -383 387 -517 126 -119
243 -196 373 -246 158 -59 146 -58 1038 -52 l815 5 95 33 c168 58 330 175 417
302 39 57 1285 2037 1303 2069 20 39 17 120 -7 166 -24 46 -44 65 -93 90 -41
21 -27 21 -1095 4 -379 -6 -718 -9 -753 -6 -95 9 -188 35 -280 78 -176 81
-294 192 -413 389 -42 69 -209 346 -371 615 -980 1626 -1563 2594 -1578 2620
l-18 30 60 99 c48 81 56 102 46 112 -17 16 -2207 1524 -2222 1530 -6 2 -166
-257 -356 -577z"/>
<path d="M7190 6663 c-954 -728 -1738 -1327 -1742 -1331 -7 -7 328 -594 389
-683 82 -118 239 -225 399 -271 l79 -23 950 0 c1066 0 996 -5 1160 75 101 49
189 120 252 205 53 71 850 1526 890 1627 71 174 65 381 -16 553 -20 44 -616
1161 -625 1171 0 1 -782 -594 -1736 -1323z"/>
</g>
</svg>
